<svg width="500" height="91" viewBox="0 0 500 91" fill="none" xmlns="http://www.w3.org/2000/svg">
<g clip-path="url(#clip0_3_35)">
<path d="M15.5331 46.5035C13.4716 46.5895 11.414 46.2564 9.48516 45.5243C7.55632 44.7923 5.79638 43.6765 4.31204 42.2448C2.86666 40.7785 1.73813 39.0313 0.996389 37.1115C0.254652 35.1916 -0.0844837 33.1401 5.01044e-07 31.0839C-0.0195966 28.572 0.551033 26.0906 1.66601 23.8392C2.72613 21.6615 4.28783 19.7659 6.22305 18.3077C8.03754 16.8835 10.2857 16.1233 12.5931 16.1538C13.9467 16.1739 15.2814 16.4739 16.5131 17.035C18.7672 15.7622 21.1192 14.5874 23.5202 13.5105C23.4472 12.5492 23.4472 11.5837 23.5202 10.6224C23.3058 8.56405 23.644 6.48582 24.5002 4.6014C25.3897 3.11609 26.6804 1.91148 28.2242 1.12587C29.514 0.407882 30.9619 0.0210184 32.4383 -3.22918e-06C33.6705 -0.0337736 34.8839 0.307678 35.9173 0.979018C36.3676 1.27791 36.7343 1.68638 36.9829 2.16596C37.2315 2.64553 37.3538 3.18043 37.3383 3.72028C37.3675 5.06549 36.8961 6.37369 36.0153 7.3916C35.0148 8.55038 33.8212 9.5275 32.4873 10.2797C30.8993 11.1833 29.2636 12.0003 27.5872 12.7273C27.9302 15.1259 28.4202 17.6224 29.0082 19.972C30.0747 23.7378 30.6996 27.6146 30.8702 31.5245C30.9841 34.7407 30.0372 37.9052 28.1752 40.5315C26.6947 42.4591 24.7585 43.9897 22.5402 44.986C20.345 46.0015 17.9522 46.5196 15.5331 46.5035V46.5035ZM14.0141 45.2797C16.0928 45.2868 18.1403 44.7757 19.9713 43.7927C21.8024 42.8097 23.359 41.386 24.5002 39.6503C26.0476 37.2661 26.8179 34.4617 26.7052 31.6224C26.5544 27.6658 25.946 23.74 24.8922 19.9231C24.5002 18.0629 24.0102 16.2517 23.6672 14.6853C21.5602 15.6154 19.4532 16.6923 17.4441 17.7692C19.0735 18.9318 20.3788 20.4906 21.2363 22.2981C22.0938 24.1056 22.4751 26.1019 22.3442 28.0979C22.357 28.5247 22.2555 28.9472 22.0502 29.3217C21.9658 29.4793 21.8377 29.6093 21.6813 29.6961C21.5249 29.783 21.3467 29.8229 21.1682 29.8112C20.9903 29.8097 20.8148 29.7695 20.6541 29.6934C20.4933 29.6173 20.351 29.5072 20.2372 29.3706C19.9969 29.119 19.8574 28.7881 19.8452 28.4406C19.8452 28.267 19.8794 28.0951 19.9459 27.9348C20.0124 27.7744 20.1098 27.6287 20.2327 27.506C20.3555 27.3833 20.5014 27.2859 20.6619 27.2195C20.8224 27.1531 20.9944 27.1189 21.1682 27.1189H21.4622C21.4971 25.3287 21.0633 23.5605 20.2039 21.9893C19.3444 20.4181 18.0891 19.0984 16.5621 18.1608C13.8604 19.7296 11.5488 21.8883 9.80008 24.4755C8.25082 26.6184 7.38033 29.176 7.30106 31.8182C7.38935 33.5543 8.04623 35.2133 9.17062 36.54C10.295 37.8667 11.8246 38.7875 13.5241 39.1608C13.5225 38.9873 13.5565 38.8153 13.6239 38.6553C13.6913 38.4954 13.7907 38.3509 13.9161 38.2308C14.0165 38.1232 14.1378 38.0373 14.2726 37.9784C14.4075 37.9195 14.5529 37.8887 14.7001 37.8881C14.8755 37.8725 15.0521 37.9 15.2144 37.9682C15.3767 38.0365 15.5198 38.1434 15.6311 38.2797C15.7686 38.3855 15.8829 38.5182 15.9672 38.6698C16.0514 38.8213 16.1038 38.9884 16.1211 39.1608C16.1089 39.5084 15.9694 39.8393 15.7291 40.0909C15.6025 40.2378 15.444 40.3538 15.2657 40.4302C15.0873 40.5065 14.8939 40.5412 14.7001 40.5315C14.4101 40.6002 14.1081 40.6002 13.8181 40.5315C11.7822 40.1308 9.95139 39.0297 8.64425 37.4198C7.3371 35.8099 6.63639 33.793 6.66405 31.7203C6.70742 28.9585 7.55912 26.2699 9.11407 23.986C10.746 21.4249 12.9204 19.2526 15.4841 17.6224C14.4998 17.2394 13.4534 17.0402 12.3971 17.035C10.2501 17.0228 8.1677 17.7682 6.51705 19.1399C4.73826 20.5766 3.31333 22.402 2.35202 24.4755C1.34847 26.5688 0.829304 28.8608 0.833007 31.1818C0.798711 33.6171 1.37123 36.0226 2.49902 38.1818C3.57743 40.1893 5.16606 41.8776 7.10506 43.0769C9.12995 44.4966 11.5403 45.2651 14.0141 45.2797ZM27.4402 11.7972C28.998 11.1095 30.5191 10.3416 31.9973 9.4965C33.199 8.81787 34.2896 7.95944 35.2313 6.95105C36.0014 6.05157 36.4192 4.90382 36.4073 3.72028C36.4227 3.34788 36.351 2.97704 36.1979 2.63716C36.0448 2.29728 35.8145 1.99771 35.5253 1.76223C34.8873 1.25372 34.0867 0.992915 33.2713 1.02797C32.5411 1.04956 31.8226 1.21655 31.1579 1.51915C30.4932 1.82176 29.8956 2.25389 29.4002 2.79021C27.868 4.78733 27.1344 7.28254 27.3422 9.79021C27.3422 10.5245 27.3912 11.1608 27.4402 11.7972ZM39.2003 39.6014C38.1478 39.6562 37.1088 39.3448 36.2603 38.7203C35.5254 38.1834 34.9771 37.4303 34.6923 36.5664C34.3556 35.6243 34.1896 34.6297 34.2023 33.6294C34.2231 31.6151 34.622 29.6226 35.3783 27.7552C36.068 25.9252 36.9727 24.1835 38.0733 22.5664C39.0213 21.175 40.1593 19.9228 41.4543 18.8462C42.3459 17.9995 43.5093 17.4965 44.7374 17.4266C46.8444 17.4266 47.8734 18.5035 47.8734 20.7063C47.8695 21.5307 47.7708 22.3519 47.5794 23.1538C46.5504 27.021 45.5214 28.9301 44.4924 28.9301C44.3265 28.9279 44.1627 28.892 44.0111 28.8247C43.8595 28.7574 43.7232 28.66 43.6103 28.5385C43.4799 28.4223 43.3771 28.2785 43.3093 28.1176C43.2415 27.9567 43.2104 27.7828 43.2183 27.6084C43.2027 27.4332 43.2302 27.2568 43.2985 27.0946C43.3669 26.9325 43.4739 26.7896 43.6103 26.6783C43.7232 26.5568 43.8595 26.4594 44.0111 26.3921C44.1627 26.3248 44.3265 26.2889 44.4924 26.2867C44.6551 26.2797 44.8176 26.3065 44.9694 26.3655C45.1212 26.4245 45.2591 26.5143 45.3744 26.6294C46.3301 24.7579 46.881 22.7065 46.9914 20.6084C47.0563 20.2688 47.0563 19.92 46.9914 19.5804C46.9382 19.468 46.8553 19.3721 46.7517 19.3032C46.6482 19.2342 46.5277 19.1946 46.4034 19.1888C45.4724 19.1888 44.2474 20.3147 42.6793 22.5175C40.1774 25.7562 38.7396 29.6889 38.5633 33.7762C38.5527 34.7173 38.7361 35.6504 39.1023 36.5175C39.251 36.949 39.5275 37.3251 39.895 37.5961C40.2625 37.8671 40.7038 38.0201 41.1603 38.035C43.2673 38.035 46.0604 35.4406 49.3924 30.1538C50.0784 29.028 50.8134 27.8531 51.5484 26.5804L51.9404 25.9441L52.6754 26.4336L51.6954 28.0979C47.0894 35.7343 42.9733 39.6014 39.2003 39.6014Z" fill="#202020"/>
<path d="M54.3414 39.1608C53.8178 39.1846 53.2954 39.0915 52.8122 38.8883C52.3291 38.6851 51.8974 38.3768 51.5484 37.986C50.4999 36.5742 49.9642 34.8477 50.0294 33.0909C50.0384 31.2129 50.3359 29.3473 50.9114 27.5594C51.464 25.8265 52.2557 24.179 53.2634 22.6643C54.2167 21.1265 55.4861 19.8084 56.9875 18.7972C58.2355 17.9229 59.7262 17.4607 61.2505 17.4755C63.7985 17.4755 65.0725 19.2378 65.0725 22.8112C65.1583 23.7393 65.1583 24.6733 65.0725 25.6014C64.4945 28.69 63.3123 31.6343 61.5935 34.2657C62.9303 33.8089 64.1614 33.0881 65.2137 32.1462C66.2659 31.2044 67.1178 30.0607 67.7185 28.7832C68.2575 27.9511 68.7476 27.0699 69.2866 26.1399L70.0216 26.6294C69.5316 27.4615 69.0416 28.3427 68.5026 29.1259C67.5239 30.9811 66.2117 32.6405 64.6315 34.021C63.5777 34.8861 62.2703 35.3845 60.9075 35.4406C60.1807 36.5306 59.208 37.4351 58.0676 38.0812C56.9272 38.7273 55.6509 39.0971 54.3414 39.1608V39.1608ZM56.1055 37.3497C57.2815 37.3497 58.5065 36.4685 59.8785 34.7552C59.1594 34.5761 58.4903 34.2363 57.9216 33.7615C57.353 33.2867 56.8995 32.6892 56.5955 32.014C56.0274 30.6823 55.7277 29.2517 55.7135 27.8042C55.7095 26.8795 55.8248 25.9582 56.0565 25.0629C54.8697 27.4713 54.2337 30.1131 54.1944 32.7972C54.1944 35.9627 54.8314 37.5455 56.1055 37.5455V37.3497ZM60.4665 33.9231C62.176 31.3046 63.3577 28.3782 63.9455 25.3077C64.0336 24.4288 64.0336 23.5433 63.9455 22.6643C63.9455 20.1678 63.3085 18.9441 61.9365 18.9441C61.1426 19.0195 60.3987 19.3651 59.8295 19.9231C59.2698 20.3939 58.7754 20.9371 58.3595 21.5385C57.9153 22.4791 57.5705 23.4635 57.3305 24.4755C56.8777 25.7147 56.6456 27.0235 56.6445 28.3427C56.6452 29.6236 56.9121 30.8904 57.4285 32.0629C57.7024 32.6602 58.1259 33.1767 58.6581 33.5626C59.1903 33.9485 59.8132 34.1907 60.4665 34.2657V33.9231Z" fill="#202020"/>
<path d="M80.6056 7.53846L76.3916 17.7692H79.4296V18.6993H75.9996L75.0196 21C72.5897 26.0939 70.7484 31.4478 69.5316 36.958C69.5316 37.6923 69.5316 38.0839 70.1686 38.0839C70.6576 38.0417 71.1325 37.898 71.5628 37.662C71.9931 37.426 72.3694 37.1029 72.6676 36.7133C75.4197 33.6101 77.8191 30.2118 79.8216 26.5804L80.2136 25.9441L80.9486 26.4336C76.0486 35.3916 72.0306 39.8462 69.2376 39.8462C67.2775 39.8462 66.3465 38.6224 66.3465 36.1259C67.2103 30.7259 68.8612 25.4814 71.2466 20.5594L71.9816 18.6993H68.9435V17.7692H72.3736L76.5876 7.53846H80.6056Z" fill="#202020"/>
<path d="M91.5327 7.53846C90.2097 10.7692 88.7887 14.1958 87.2697 17.7692H90.3567V18.6993H86.8777L85.9467 21C83.5126 26.0971 81.6555 31.4495 80.4096 36.958C80.4096 37.6923 80.6546 38.0839 81.0956 38.0839C81.5833 38.036 82.0561 37.8898 82.4856 37.6542C82.9152 37.4187 83.2924 37.0986 83.5947 36.7133C86.3468 33.6101 88.7462 30.2118 90.7487 26.5804L91.0917 25.9441L91.8757 26.4336C86.9757 35.3916 82.9577 39.8462 80.1156 39.8462C78.2046 39.8462 77.2246 38.6224 77.2246 36.1259C78.0884 30.7259 79.7393 25.4814 82.1246 20.5594L82.8597 18.6993H79.8216V17.7692H83.3007L87.5147 7.53846H91.5327Z" fill="#202020"/>
<path d="M91.0917 39.8462C90.077 39.9715 89.0509 39.7282 88.2007 39.1608C87.8235 38.827 87.5295 38.4097 87.3424 37.9423C87.1552 37.4748 87.08 36.9702 87.1227 36.4685C87.1252 35.8091 87.2611 35.1571 87.5221 34.5514C87.7831 33.9458 88.1639 33.399 88.6417 32.9441C89.5101 32.0565 90.6836 31.5315 91.9247 31.4755C92.0993 31.4676 92.2734 31.4986 92.4345 31.5664C92.5955 31.6341 92.7394 31.7369 92.8557 31.8671C92.9597 31.9599 93.0437 32.0729 93.1027 32.1991C93.1617 32.3253 93.1943 32.4622 93.1987 32.6014C93.208 32.8241 93.1585 33.0453 93.0553 33.2428C92.9522 33.4404 92.7988 33.6075 92.6107 33.7273C92.3697 33.7894 92.1168 33.7894 91.8757 33.7273C91.7237 33.7406 91.5706 33.7231 91.4256 33.6756C91.2807 33.6281 91.1469 33.5516 91.0323 33.4509C90.9178 33.3503 90.8249 33.2274 90.7593 33.0898C90.6937 32.9521 90.6568 32.8027 90.6507 32.6503C90.2383 32.7249 89.848 32.8912 89.5088 33.137C89.1695 33.3827 88.8899 33.7016 88.6907 34.0699C88.3185 34.724 88.1481 35.4733 88.2007 36.2238C88.1669 36.5918 88.2153 36.9627 88.3424 37.3098C88.4695 37.6569 88.6721 37.9714 88.9357 38.2308C89.4757 38.6649 90.154 38.8907 90.8467 38.8671C91.547 38.8794 92.2417 38.7415 92.8841 38.4629C93.5265 38.1842 94.1016 37.7712 94.5707 37.2517C95.5673 36.1212 96.0778 34.6438 95.9918 33.1399C95.9012 31.4503 95.5027 29.7914 94.8158 28.2448C94.0598 26.8891 93.4833 25.4411 93.1007 23.9371L91.2877 27.0699L90.5527 26.5804C90.9121 25.9277 91.2551 25.3403 91.5817 24.8182L93.1007 22.4196C93.5534 21.5245 94.0607 20.6581 94.6198 19.8252C95.3715 18.8309 96.3642 18.0441 97.5043 17.5389C98.6444 17.0336 99.8945 16.8265 101.137 16.9371V17.7692C98.0988 18.3566 96.6288 19.7762 96.6288 22.028C96.7479 23.7133 97.1453 25.3673 97.8048 26.9231C98.5247 28.684 98.939 30.5546 99.0298 32.4545C99.0489 33.6484 98.8152 34.8328 98.3438 35.9301C99.7534 34.5628 101.018 33.0536 102.117 31.4266C102.999 30.1538 104.077 28.3916 105.351 26.1888L106.086 26.6783C105.008 28.4895 103.979 30.2517 102.901 31.5734C101.095 34.5681 98.5468 37.0466 95.5018 38.7692C94.1364 39.4681 92.6259 39.837 91.0917 39.8462V39.8462Z" fill="#202020"/>
<path d="M128.577 4.8951C123.677 16.3007 120.443 24.8182 118.434 30.3496C117.438 32.6393 116.714 35.0381 116.278 37.4965C116.278 37.9371 116.278 38.1329 116.817 38.1329C117.356 38.1329 118.042 37.6923 118.924 36.8112C121.646 33.6774 124.027 30.2644 126.029 26.6294L126.421 25.993L127.156 26.4825C125.661 29.2088 124.026 31.8557 122.256 34.4126C119.659 38.0839 117.65 39.8951 116.18 39.8951C114.71 39.8951 113.289 38.8182 113.289 36.7133C113.34 35.219 113.587 33.7378 114.024 32.3077L114.612 30.3986C113.044 32.993 111.966 34.7552 111.28 35.7343C109.369 38.5245 107.703 39.8951 106.38 39.8951C105.057 39.8951 102.901 38.1329 102.901 34.6573C102.972 32.6645 103.369 30.6967 104.077 28.8322C104.751 26.92 105.621 25.0827 106.674 23.3496C107.605 21.7302 108.816 20.2883 110.251 19.0909C111.35 18.1214 112.754 17.5671 114.22 17.5245C115.078 17.5208 115.911 17.8175 116.573 18.3629C117.235 18.9083 117.686 19.6681 117.846 20.5105C120.051 15.3217 122.207 10.0839 124.363 4.84615L128.577 4.8951ZM107.801 37.6923C108.193 37.6923 108.781 37.1049 109.663 35.8811C112.041 32.7103 114.078 29.2974 115.739 25.6993L116.523 23.986C116.931 23.1934 117.181 22.3287 117.258 21.4406C117.301 21.0665 117.301 20.6887 117.258 20.3147C117.194 20.0202 117.034 19.7551 116.804 19.5605C116.573 19.3658 116.285 19.2524 115.984 19.2378C115.43 19.3266 114.902 19.5346 114.437 19.8473C113.972 20.16 113.58 20.57 113.289 21.049C112.172 22.4445 111.234 23.9738 110.496 25.6014C109.635 27.3926 108.898 29.2408 108.291 31.1329C107.723 32.7093 107.377 34.3567 107.262 36.028C107.017 37.2028 107.262 37.6923 107.801 37.6923V37.6923Z" fill="#202020"/>
<path d="M144.453 17.7692C144.208 18.3566 143.522 19.6783 142.542 21.8322C140.631 25.7972 139.112 29.3217 137.936 32.3566C137.233 33.913 136.755 35.5612 136.515 37.2517C136.515 37.6923 136.515 37.8881 137.054 37.8881C137.593 37.8881 138.034 37.4476 138.916 36.5664C141.655 33.435 144.053 30.0219 146.07 26.3846L146.413 25.7483L147.148 26.2378C145.608 29.0006 143.924 31.6804 142.101 34.2657C139.504 37.9371 137.495 39.7483 136.025 39.7483C134.555 39.7483 133.379 38.6713 133.379 36.5664C133.426 35.0678 133.69 33.5838 134.163 32.1608C131.223 37.0559 128.871 39.7483 127.009 39.7483C125.147 39.7483 124.02 38.2308 124.02 35.1958C124.045 32.9912 124.443 30.8066 125.196 28.7343C125.87 26.8221 126.74 24.9848 127.793 23.2517C128.709 21.6216 129.922 20.1772 131.37 18.993C132.473 18.0305 133.875 17.4773 135.339 17.4266C135.937 17.4031 136.529 17.5408 137.055 17.825C137.581 18.1092 138.021 18.5296 138.328 19.042C138.593 19.4662 138.791 19.9284 138.916 20.4126L140.288 17.6713L144.453 17.7692ZM128.577 37.6434C128.92 37.6434 129.361 37.3007 129.851 36.6643C132.81 33.0725 135.282 29.1057 137.201 24.8671C137.759 23.7929 138.139 22.6358 138.328 21.4406C138.347 20.8701 138.193 20.3071 137.887 19.8252C137.802 19.6467 137.67 19.494 137.507 19.3823C137.344 19.2705 137.154 19.2038 136.956 19.1888C136.385 19.2641 135.838 19.4657 135.355 19.7791C134.871 20.0924 134.464 20.5095 134.163 21C133.057 22.4209 132.12 23.965 131.37 25.6014C130.509 27.3926 129.772 29.2408 129.165 31.1329C128.598 32.7093 128.251 34.3567 128.136 36.028C127.891 37.1538 128.136 37.6434 128.577 37.6434V37.6434Z" fill="#202020"/>
<path d="M158.859 4.89511C156.85 9.79021 154.596 15.0769 152.146 21.049C149.632 26.2839 147.773 31.8079 146.609 37.4965C146.609 37.9371 146.609 38.1329 147.148 38.1329C147.687 38.1329 148.373 37.6923 149.206 36.7622C151.991 33.6737 154.408 30.2734 156.409 26.6294L156.801 25.9441L157.585 26.4336C152.391 35.3916 148.667 39.8462 146.364 39.8462C144.061 39.8462 143.473 38.7692 143.473 36.6643C144.251 31.0726 145.905 25.6379 148.373 20.5594L154.89 4.89511H158.859Z" fill="#202020"/>
<path d="M159.741 39.6014C158.689 39.6562 157.65 39.3448 156.801 38.7203C156.058 38.0778 155.479 37.2673 155.113 36.3563C154.746 35.4453 154.603 34.4601 154.694 33.4825C154.729 31.3917 155.179 29.3286 156.017 27.4126C156.695 25.688 157.566 24.0457 158.614 22.5175C159.559 21.1529 160.679 19.9185 161.946 18.8462C162.855 17.9961 164.035 17.4935 165.278 17.4266C165.68 17.3964 166.084 17.4504 166.464 17.5853C166.843 17.7202 167.191 17.9329 167.483 18.2098C168.002 18.8229 168.265 19.6114 168.218 20.4126C168.169 21.9301 167.784 23.418 167.091 24.7692C166.505 26.5718 165.438 28.1806 164.005 29.4225C162.571 30.6645 160.826 31.4928 158.957 31.8182C158.706 33.473 158.91 35.1648 159.545 36.7133C159.688 37.1173 159.954 37.4666 160.305 37.7124C160.657 37.9581 161.076 38.088 161.505 38.0839C163.612 38.0839 166.405 35.4895 169.737 30.2028C170.276 29.3706 171.109 27.951 172.285 25.993L173.02 26.4825L172.04 28.1469C167.679 35.7343 163.612 39.6014 159.741 39.6014ZM159.104 30.8881C161.047 30.5863 162.8 29.5529 164.004 28C165.751 25.9935 166.89 23.5315 167.287 20.9021V20.1678C167.287 19.4825 167.287 19.0909 166.65 19.0909C166.013 19.0909 165.67 19.4825 164.935 20.2168C162.051 23.174 160.034 26.8651 159.104 30.8881V30.8881ZM196.247 45.1818C194.679 45.1818 193.944 44.5455 193.944 43.2238C193.996 42.6022 194.214 42.006 194.576 41.4979C194.938 40.9897 195.431 40.5883 196.002 40.3357C197.152 39.5374 198.52 39.1103 199.922 39.1119C201.784 35.5385 203.597 31.7203 205.312 27.6573C207.027 23.5944 208.693 19.4825 210.212 15.3706C211.388 12.3846 212.564 9.4965 213.691 6.75524H217.905L214.377 15.4196C212.809 19.3357 211.192 23.2517 209.477 27.1189C207.776 31.4783 205.711 35.6867 203.303 39.6993C204.32 39.8918 205.354 39.9901 206.39 39.993C208.384 40.0244 210.364 39.6499 212.209 38.8925C214.054 38.1352 215.725 37.0106 217.121 35.5874C220.228 32.6049 222.493 28.8565 223.687 24.7203C224.322 22.2766 224.603 19.7543 224.52 17.2308C224.533 14.6457 223.928 12.0949 222.756 9.79021C221.554 7.44596 219.743 5.46778 217.513 4.06294C214.864 2.48601 211.824 1.68849 208.742 1.76224C205.678 1.76737 202.646 2.38312 199.824 3.57343C201.874 5.81038 203.412 8.46623 204.332 11.3566C205.242 14.0062 205.737 16.78 205.802 19.5804C205.949 23.0247 205.062 26.4342 203.254 29.3706C202.065 31.393 200.378 33.078 198.354 34.2657C196.617 35.2951 194.64 35.852 192.621 35.8811C191.504 35.9084 190.395 35.7001 189.365 35.2699C188.335 34.8397 187.407 34.1973 186.642 33.3846C184.888 31.3197 184.024 28.644 184.241 25.9441C184.275 23.0337 184.874 20.1576 186.005 17.4755C187.192 14.5368 188.847 11.8092 190.906 9.3986C192.885 6.85274 195.392 4.76526 198.256 3.27972C197.717 2.79021 197.178 2.3007 196.59 1.86014C196.522 2.13167 196.364 2.37205 196.141 2.54128C195.919 2.7105 195.644 2.79835 195.365 2.79021C195.191 2.79179 195.019 2.75787 194.859 2.69053C194.698 2.62318 194.554 2.52384 194.434 2.3986C194.185 2.15258 194.044 1.81815 194.042 1.46853C194.044 1.11892 194.185 0.784486 194.434 0.538462C194.54 0.386306 194.679 0.259265 194.839 0.166247C195 0.0732291 195.179 0.0164869 195.365 0C195.884 0.0396261 196.371 0.26567 196.737 0.636364L199.138 2.74126C202.228 1.38922 205.564 0.689291 208.938 0.685315C212.593 0.57432 216.212 1.4359 219.424 3.18182C221.973 4.57091 224.053 6.68303 225.402 9.25175C226.663 11.5994 227.32 14.2237 227.313 16.8881C227.382 19.6975 227.035 22.5016 226.284 25.2098C224.875 29.5968 222.281 33.5099 218.787 36.5175C215.384 39.5225 210.979 41.1465 206.439 41.0699C205.192 41.0657 203.947 40.9675 202.715 40.7762C200.461 43.7133 198.305 45.1818 196.247 45.1818ZM192.474 34.5594C194.358 34.5447 196.204 34.0203 197.815 33.042C199.689 31.9482 201.257 30.3991 202.372 28.5385C204.001 25.8402 204.817 22.7302 204.724 19.5804C204.723 17.0381 204.327 14.5112 203.548 12.0909C202.648 9.0686 201.073 6.28998 198.942 3.96503C196.142 5.26886 193.653 7.15469 191.641 9.4965C189.584 11.8183 187.929 14.465 186.74 17.3287C185.658 19.9042 185.076 22.6618 185.025 25.4545C184.835 27.9229 185.588 30.3716 187.132 32.3077C187.812 33.0395 188.64 33.6186 189.561 34.0068C190.482 34.395 191.474 34.5834 192.474 34.5594V34.5594ZM232.066 39.6014C231.013 39.6562 229.974 39.3448 229.126 38.7203C228.373 38.0857 227.787 37.2765 227.42 36.3634C227.052 35.4502 226.915 34.4611 227.019 33.4825C227.036 31.3947 227.469 29.3312 228.293 27.4126C228.968 25.6777 229.857 24.0334 230.939 22.5175C231.852 21.1434 232.958 19.9071 234.222 18.8462C235.143 17.9855 236.343 17.482 237.603 17.4266C237.997 17.3972 238.393 17.4518 238.765 17.5868C239.137 17.7219 239.476 17.9342 239.759 18.2098C240.277 18.8229 240.54 19.6114 240.494 20.4126C240.463 21.9268 240.095 23.4152 239.416 24.7692C238.816 26.5728 237.739 28.1805 236.298 29.4215C234.857 30.6626 233.107 31.4908 231.233 31.8182C231.205 32.2256 231.205 32.6345 231.233 33.042C231.17 34.2819 231.388 35.5199 231.87 36.6643C232.013 37.0684 232.279 37.4177 232.63 37.6634C232.981 37.9092 233.401 38.0391 233.83 38.035C235.937 38.035 238.73 35.4406 242.062 30.1538C242.601 29.3217 243.434 27.9021 244.61 25.9441L245.345 26.4336L244.414 28.0979C240.102 35.7343 235.888 39.6014 232.066 39.6014V39.6014ZM231.429 30.8881C233.372 30.5863 235.125 29.5529 236.329 28C238.076 25.9935 239.215 23.5315 239.612 20.9021V20.1678C239.612 19.8252 239.612 19.0909 238.926 19.0909C238.24 19.0909 237.946 19.4825 237.26 20.2168C235.996 21.4669 234.908 22.8832 234.026 24.4266C232.799 26.4172 231.92 28.6024 231.429 30.8881Z" fill="#202020"/>
<path d="M251.96 17.7692L250.343 21.7343C252.254 18.7972 254.116 17.3287 255.88 17.3287C256.432 17.3036 256.983 17.4104 257.486 17.6403C257.988 17.8701 258.429 18.2164 258.771 18.6504C259.438 19.4461 259.803 20.4516 259.8 21.4895C259.439 24.0871 258.679 26.6134 257.546 28.979C257.105 30.007 256.713 31.035 256.321 32.0629C255.611 33.6132 255.148 35.2649 254.949 36.958C254.949 37.6434 254.949 37.986 255.488 37.986C256.001 37.9009 256.468 37.6415 256.811 37.2517C260.006 33.8655 262.726 30.0615 264.896 25.9441L265.631 26.4336C260.535 35.2448 256.713 39.6504 254.165 39.6504C253.743 39.7154 253.311 39.6809 252.904 39.5497C252.497 39.4185 252.127 39.1941 251.822 38.8946C251.518 38.5951 251.287 38.2286 251.15 37.8244C251.012 37.4202 250.971 36.9894 251.029 36.5664C251.059 35.1413 251.341 33.7326 251.862 32.4056C252.385 31.0023 253.022 29.5338 253.773 28C255.199 25.4653 256.161 22.6971 256.615 19.8252C256.615 18.7483 256.272 18.2587 255.586 18.2587C254.607 18.4415 253.723 18.9611 253.087 19.7273C251.546 21.4086 250.259 23.3049 249.265 25.3566C248.138 27.7063 247.109 29.9091 246.227 32.0629L242.993 39.6014H238.828L247.746 17.7692H251.96Z" fill="#202020"/>
<path d="M276.215 7.53846C274.892 10.7692 273.471 14.1958 271.952 17.7692H275.039V18.6993H271.56L270.629 21C268.195 26.0971 266.338 31.4495 265.092 36.958C265.092 37.6923 265.092 38.0839 265.778 38.0839C266.26 38.0411 266.728 37.8968 267.15 37.6605C267.572 37.4243 267.94 37.1015 268.228 36.7133C271.013 33.6247 273.43 30.2245 275.431 26.5804L275.774 25.9441L276.509 26.4336C271.609 35.3916 267.64 39.8462 264.798 39.8462C262.887 39.8462 261.907 38.6224 261.907 36.1259C262.771 30.7259 264.422 25.4814 266.807 20.5594L267.542 18.6993H264.602V17.7692H268.081L272.295 7.53846H276.215Z" fill="#202020"/>
<path d="M294.002 17.7692C293.708 18.3566 293.022 19.6783 292.042 21.8322C290.131 25.7972 288.612 29.3217 287.436 32.3566C286.733 33.913 286.255 35.5612 286.015 37.2518C286.015 37.6923 286.015 37.8881 286.554 37.8881C287.093 37.8881 287.534 37.4476 288.416 36.5664C291.155 33.435 293.553 30.0219 295.57 26.3846L295.913 25.7483L296.697 26.2378C294.901 29.3706 293.137 32.0466 291.405 34.2657C288.808 37.9371 286.799 39.7483 285.329 39.7483C283.859 39.7483 282.732 38.6713 282.732 36.5664C282.783 35.0721 283.03 33.5909 283.467 32.1608C280.576 37.0559 278.175 39.7483 276.313 39.7483C274.451 39.7483 273.324 38.2308 273.324 35.1958C273.329 33.0296 273.693 30.8792 274.402 28.8322C275.076 26.92 275.946 25.0827 276.999 23.3497C277.93 21.7302 279.141 20.2883 280.576 19.0909C281.686 18.1386 283.084 17.5868 284.545 17.5245C285.149 17.5025 285.748 17.6403 286.282 17.924C286.815 18.2076 287.264 18.6271 287.583 19.1399C287.848 19.5641 288.047 20.0263 288.171 20.5105L289.494 17.7692H294.002ZM277.979 37.6434C278.273 37.6434 278.714 37.3007 279.253 36.6643C282.093 33.0446 284.464 29.0808 286.309 24.8671C286.867 23.7929 287.247 22.6358 287.436 21.4406C287.455 20.8701 287.302 20.3071 286.995 19.8252C286.914 19.6436 286.784 19.488 286.62 19.3756C286.455 19.2633 286.263 19.1986 286.064 19.1888C285.502 19.2709 284.964 19.4758 284.49 19.7888C284.016 20.1018 283.616 20.5154 283.32 21C282.197 22.4184 281.244 23.9626 280.478 25.6014C279.617 27.3926 278.881 29.2408 278.273 31.1329C277.706 32.7093 277.36 34.3567 277.244 36.028C277.244 37.1049 277.489 37.6434 277.979 37.6434V37.6434Z" fill="#202020"/>
<path d="M308.212 4.89511L301.499 21.049C298.989 26.2683 297.13 31.7757 295.962 37.4476C295.962 37.8881 295.962 38.0839 296.501 38.0839C297.04 38.0839 297.726 37.6434 298.608 36.7133C301.361 33.6101 303.76 30.2118 305.762 26.5804L306.154 25.9441L306.889 26.4336C301.695 35.3916 297.971 39.8462 295.668 39.8462C293.365 39.8462 292.777 38.7692 292.777 36.6643C293.555 31.0726 295.209 25.6379 297.677 20.5594C299.931 15.338 302.12 10.1166 304.243 4.89511H308.212ZM338.103 46.4056C334.208 46.571 330.388 45.2991 327.372 42.8322C325.868 41.5433 324.777 39.8409 324.236 37.9371C322.203 37.2809 320.468 35.9286 319.336 34.1189C318.366 32.4546 317.858 30.562 317.866 28.6364C317.869 26.5681 318.338 24.5272 319.238 22.6643C320.065 20.8928 321.269 19.3226 322.766 18.0629C325.303 15.8988 328.23 14.2375 331.39 13.1678C334.486 12.1225 337.644 11.2724 340.847 10.6224C341.104 9.01937 341.652 7.47669 342.464 6.06993C343.257 4.63628 344.362 3.3985 345.698 2.44755C346.995 1.47063 348.581 0.953858 350.206 0.979021C351.228 0.938412 352.226 1.28853 352.999 1.95804C353.367 2.29869 353.655 2.71705 353.842 3.18275C354.028 3.64844 354.109 4.14978 354.077 4.65035C354.087 5.16448 353.987 5.67484 353.784 6.1475C353.582 6.62015 353.28 7.04425 352.901 7.39161C351.952 8.21286 350.854 8.84436 349.667 9.25175C348.073 9.83845 346.434 10.2968 344.767 10.6224C344.571 12.0188 344.571 13.4357 344.767 14.8322C345.121 14.9031 345.437 15.102 345.654 15.391C345.871 15.68 345.974 16.0387 345.943 16.3986C345.956 16.6616 345.906 16.924 345.795 17.1629C345.684 17.4018 345.516 17.61 345.306 17.7692C344.904 18.0936 344.401 18.2669 343.885 18.2587C343.321 18.2799 342.763 18.133 342.284 17.8366C341.804 17.5402 341.423 17.1078 341.19 16.5944C338.507 17.7151 336.087 19.3823 334.085 21.4895C332.014 23.4473 330.35 25.7924 329.185 28.3916C328.352 30.2452 327.87 32.2368 327.764 34.2657C327.746 35.2749 327.878 36.2812 328.156 37.2518C329.349 37.1678 330.504 36.7939 331.521 36.1626C332.537 35.5313 333.383 34.6617 333.987 33.6294C333.692 33.6176 333.412 33.4952 333.203 33.2867C333.109 33.0341 333.109 32.7562 333.203 32.5035C333.09 32.2037 333.09 31.8732 333.203 31.5734C333.323 31.4482 333.468 31.3489 333.628 31.2815C333.788 31.2142 333.96 31.1802 334.134 31.1818C334.3 31.184 334.463 31.2199 334.615 31.2872C334.767 31.3545 334.903 31.4519 335.016 31.5734C335.146 31.6896 335.249 31.8334 335.317 31.9943C335.385 32.1552 335.416 32.3291 335.408 32.5035C335.292 33.2464 334.969 33.9418 334.477 34.5105C333.787 35.5571 332.878 36.4409 331.812 37.1004C330.745 37.7598 329.548 38.179 328.303 38.3287C329.32 40.4772 331.052 42.2071 333.203 43.2238C335.275 44.3644 337.599 44.9701 339.965 44.986C342.537 45.0015 345.064 44.307 347.266 42.979C349.505 41.744 351.406 39.9792 352.803 37.8392C354.174 35.655 354.888 33.1234 354.861 30.5455C355.011 28.6047 354.454 26.6752 353.293 25.1119C352.837 24.5504 352.262 24.0967 351.61 23.7835C350.957 23.4704 350.244 23.3055 349.52 23.3007C348.364 23.2731 347.236 23.6546 346.335 24.3776C345.261 25.1917 344.5 26.3495 344.179 27.6573H344.571C344.708 27.6457 344.845 27.6662 344.973 27.7172C345.101 27.7682 345.215 27.8483 345.306 27.9511C345.433 28.0803 345.532 28.2334 345.6 28.4014C345.667 28.5694 345.7 28.7491 345.698 28.9301C345.699 29.1036 345.665 29.2756 345.598 29.4356C345.531 29.5955 345.431 29.74 345.306 29.8601C345.187 29.9878 345.043 30.0887 344.883 30.1563C344.722 30.2238 344.549 30.2564 344.375 30.2517C343.542 30.2517 343.101 29.7622 343.101 28.7343C343.043 28.3612 343.043 27.9815 343.101 27.6084C343.395 26.1439 344.193 24.8281 345.355 23.8881C346.51 22.894 347.996 22.3698 349.52 22.4196C350.328 22.4302 351.125 22.6099 351.859 22.9472C352.593 23.2845 353.249 23.7717 353.783 24.3776C355.132 26.0998 355.78 28.2682 355.596 30.4476C355.68 33.4185 354.841 36.3426 353.195 38.8182C351.589 41.1655 349.414 43.0685 346.874 44.3497C344.159 45.7307 341.149 46.4361 338.103 46.4056V46.4056ZM324.04 36.6154C323.993 35.9635 323.993 35.3092 324.04 34.6573C324.069 32.0346 324.707 29.4544 325.902 27.1189C327.334 24.0558 329.386 21.3223 331.929 19.0909C334.417 16.9102 337.418 15.3945 340.651 14.6853C340.578 14.0183 340.578 13.3454 340.651 12.6783C340.625 12.2545 340.625 11.8294 340.651 11.4056C337.58 12.0293 334.553 12.8468 331.586 13.8531C328.575 14.8896 325.795 16.5024 323.403 18.6014C321.926 19.7824 320.723 21.2692 319.877 22.9594C319.031 24.6496 318.562 26.5029 318.503 28.3916C318.461 30.0978 318.866 31.7853 319.679 33.2867C320.659 34.8183 322.1 36.0006 323.795 36.6643L324.04 36.6154ZM344.963 9.79021C346.377 9.4744 347.768 9.06558 349.128 8.56643C350.142 8.2094 351.087 7.67942 351.921 7C352.256 6.69428 352.511 6.31164 352.665 5.88519C352.818 5.45873 352.866 5.0013 352.803 4.55245C352.931 4.05478 352.931 3.53263 352.803 3.03497C352.7 2.78689 352.522 2.57756 352.293 2.43689C352.064 2.29622 351.797 2.23142 351.529 2.25175C350.482 2.29745 349.495 2.75496 348.785 3.52448C347.9 4.41185 347.142 5.41661 346.531 6.51049C345.846 7.51893 345.318 8.62456 344.963 9.79021V9.79021ZM369.806 39.8462C367.699 39.8462 366.327 37.6923 365.788 33.4336C363.436 37.6923 361.182 39.8462 359.075 39.8462C356.968 39.8462 356.968 39.014 356.968 37.3007C356.968 35.7949 357.467 34.3315 358.389 33.1399C358.758 32.5741 359.258 32.1053 359.846 31.773C360.435 31.4407 361.094 31.2548 361.77 31.2308C361.952 31.2189 362.135 31.248 362.304 31.3157C362.474 31.3835 362.626 31.4883 362.75 31.6224C362.892 31.7321 363.008 31.8731 363.087 32.0343C363.166 32.1955 363.207 32.3728 363.207 32.5525C363.207 32.7321 363.166 32.9094 363.087 33.0706C363.008 33.2318 362.892 33.3728 362.75 33.4825C362.509 33.5447 362.256 33.5447 362.015 33.4825C361.706 33.4971 361.402 33.3941 361.166 33.1943C360.93 32.9945 360.778 32.7127 360.741 32.4056C360.265 32.5096 359.825 32.7359 359.464 33.0622C359.103 33.3885 358.834 33.8034 358.683 34.2657C358.165 35.1604 357.879 36.1698 357.85 37.2028C357.806 37.6699 357.927 38.1375 358.193 38.5245C358.311 38.6811 358.468 38.8042 358.649 38.8814C358.829 38.9587 359.027 38.9875 359.222 38.965C360.986 38.965 363.093 36.4685 365.592 31.4266V29.7133C365.63 26.3211 365.384 22.9316 364.857 19.5804C364.857 19.5804 364.171 20.1189 363.534 21.1469C362.897 22.1748 361.721 24.1329 360.055 26.972L359.32 26.4825C359.679 25.8298 360.022 25.2424 360.349 24.7203L361.623 22.5175C362.009 21.7517 362.451 21.0154 362.946 20.3147C364.057 18.5524 365.135 17.6713 366.18 17.6713C367.454 17.6713 368.287 19.2378 368.679 22.2727C368.679 22.9091 368.679 23.6434 368.924 24.4266C371.423 19.5315 373.824 17.3287 375.833 17.3287C376.215 17.3072 376.594 17.3977 376.925 17.5891C377.256 17.7804 377.524 18.0642 377.695 18.4056C378.145 19.0913 378.399 19.8868 378.43 20.7063C378.43 21.7832 377.94 22.3217 377.009 22.3217C376.849 22.3468 376.685 22.3337 376.531 22.2835C376.377 22.2334 376.237 22.1475 376.122 22.033C376.007 21.9185 375.921 21.7785 375.871 21.6245C375.821 21.4705 375.808 21.3069 375.833 21.1469C375.817 20.9716 375.845 20.7952 375.913 20.6331C375.982 20.471 376.089 20.328 376.225 20.2168C376.534 19.9856 376.919 19.8806 377.303 19.9231C377.303 18.8951 376.568 18.3566 375.833 18.3566C373.971 18.3566 371.668 21.0979 369.022 26.5804V27.7552C369.267 34.6573 369.904 38.0839 370.982 38.0839C371.859 37.9408 372.648 37.468 373.187 36.7622C375.943 33.6443 378.342 30.2292 380.341 26.5804L380.733 25.9441L381.468 26.4336C379.991 29.17 378.355 31.8179 376.568 34.3636C373.824 38.035 371.619 39.8462 369.806 39.8462Z" fill="#202020"/>
<path d="M383.722 39.6014C382.67 39.6562 381.631 39.3448 380.782 38.7203C380.047 38.1834 379.499 37.4303 379.214 36.5664C378.877 35.6243 378.711 34.6297 378.724 33.6294C378.745 31.6151 379.144 29.6226 379.9 27.7552C380.59 25.9252 381.494 24.1835 382.595 22.5664C383.543 21.175 384.681 19.9228 385.976 18.8462C386.868 17.9995 388.031 17.4965 389.259 17.4266C391.366 17.4266 392.395 18.5035 392.395 20.7063C392.391 21.5307 392.293 22.3519 392.101 23.1538C391.072 27.021 390.043 28.9301 389.014 28.9301C388.848 28.9279 388.684 28.892 388.533 28.8247C388.381 28.7574 388.245 28.66 388.132 28.5385C388.002 28.4223 387.899 28.2785 387.831 28.1176C387.763 27.9567 387.732 27.7828 387.74 27.6084C387.724 27.4332 387.752 27.2568 387.82 27.0946C387.889 26.9325 387.996 26.7896 388.132 26.6783C388.245 26.5568 388.381 26.4594 388.533 26.3921C388.684 26.3248 388.848 26.2889 389.014 26.2867C389.177 26.2797 389.339 26.3065 389.491 26.3655C389.643 26.4245 389.781 26.5143 389.896 26.6294C390.852 24.7579 391.403 22.7065 391.513 20.6084C391.578 20.2688 391.578 19.92 391.513 19.5804C391.46 19.468 391.377 19.3721 391.274 19.3032C391.17 19.2342 391.05 19.1946 390.925 19.1888C389.994 19.1888 388.769 20.3147 387.201 22.5175C384.702 25.7543 383.28 29.6912 383.134 33.7762C383.108 34.7138 383.275 35.6469 383.624 36.5175C383.773 36.949 384.049 37.3251 384.417 37.5961C384.784 37.8671 385.226 38.0201 385.682 38.035C387.789 38.035 390.582 35.4406 393.914 30.1538C394.6 29.028 395.335 27.8531 396.07 26.5804L396.462 25.9441L397.197 26.4336L396.217 28.0979C391.66 35.7343 387.593 39.6014 383.722 39.6014V39.6014Z" fill="#202020"/>
<path d="M399.255 39.6014C398.203 39.6562 397.164 39.3448 396.315 38.7203C395.562 38.0857 394.976 37.2765 394.609 36.3634C394.242 35.4502 394.104 34.4611 394.208 33.4825C394.25 31.3975 394.682 29.3386 395.482 27.4126C396.177 25.6868 397.065 24.0447 398.128 22.5175C399.044 21.1303 400.168 19.892 401.46 18.8462C402.364 17.9888 403.547 17.485 404.792 17.4266C405.187 17.3972 405.583 17.4518 405.954 17.5868C406.326 17.7219 406.665 17.9342 406.948 18.2098C407.467 18.8229 407.73 19.6114 407.683 20.4126C407.653 21.9268 407.285 23.4152 406.605 24.7692C406.005 26.5728 404.928 28.1805 403.487 29.4215C402.046 30.6626 400.296 31.4908 398.422 31.8182C398.395 32.2256 398.395 32.6345 398.422 33.042C398.36 34.2819 398.577 35.5199 399.059 36.6643C399.202 37.0684 399.468 37.4177 399.819 37.6634C400.171 37.9092 400.59 38.0391 401.019 38.035C403.126 38.035 405.919 35.4406 409.251 30.1538C409.79 29.3217 410.623 27.9021 411.799 25.9441L412.534 26.4336L411.603 28.0979C407.193 35.7343 403.077 39.6014 399.255 39.6014V39.6014ZM398.618 30.8881C400.561 30.5863 402.314 29.5529 403.518 28C405.249 25.994 406.355 23.5272 406.703 20.9021V20.1678C406.703 19.8252 406.703 19.0909 406.017 19.0909C405.331 19.0909 405.086 19.4825 404.351 20.2168C403.087 21.4669 401.999 22.8832 401.117 24.4266C399.924 26.4237 399.079 28.6086 398.618 30.8881V30.8881Z" fill="#202020"/>
<path d="M424.196 4.89511C422.187 9.79021 419.933 15.0769 417.483 21.049C414.969 26.2839 413.11 31.8079 411.946 37.4965C411.946 37.9371 411.946 38.1329 412.485 38.1329C413.024 38.1329 413.71 37.6923 414.543 36.7622C417.328 33.6737 419.745 30.2734 421.746 26.6294L422.089 25.993L422.873 26.4825C417.679 35.3916 413.955 39.8462 411.603 39.8462C409.251 39.8462 408.712 38.7692 408.712 36.6643C409.49 31.0726 411.144 25.6379 413.612 20.5594L420.227 4.89511H424.196Z" fill="#202020"/>
<path d="M434.535 4.89511L427.822 21.049C425.308 26.2839 423.449 31.8079 422.285 37.4965C422.285 37.9371 422.285 38.1329 422.824 38.1329C423.363 38.1329 424.049 37.6923 424.931 36.7622C427.684 33.6591 430.083 30.2607 432.085 26.6294L432.428 25.993L433.212 26.4825C428.018 35.4406 424.294 39.8951 421.991 39.8951C419.688 39.8951 419.1 38.8182 419.1 36.7133C419.878 31.1216 421.532 25.6869 424 20.6084C426.287 15.3543 428.476 10.1166 430.566 4.89511H434.535Z" fill="#202020"/>
<path d="M435.417 39.6014C434.365 39.6562 433.326 39.3448 432.477 38.7203C431.734 38.0778 431.155 37.2673 430.789 36.3563C430.422 35.4453 430.279 34.4601 430.37 33.4825C430.405 31.3917 430.855 29.3286 431.693 27.4126C432.371 25.688 433.242 24.0457 434.29 22.5175C435.235 21.1529 436.355 19.9185 437.622 18.8462C438.544 17.9855 439.743 17.482 441.003 17.4266C441.405 17.3964 441.809 17.4504 442.189 17.5853C442.569 17.7202 442.916 17.9329 443.208 18.2098C443.727 18.8229 443.99 19.6114 443.944 20.4126C443.89 21.9237 443.523 23.4073 442.865 24.7692C442.262 26.5792 441.177 28.1912 439.727 29.4328C438.277 30.6745 436.516 31.499 434.633 31.8182C434.606 32.2256 434.606 32.6345 434.633 33.042C434.571 34.2819 434.789 35.5199 435.27 36.6643C435.413 37.0684 435.679 37.4177 436.031 37.6634C436.382 37.9092 436.802 38.0391 437.23 38.035C439.337 38.035 442.131 35.4406 445.463 30.1538C446.002 29.3217 446.835 27.9021 448.011 25.9441L448.746 26.4336L447.766 28.0979C443.356 35.7343 439.288 39.6014 435.417 39.6014V39.6014ZM434.78 30.8881C436.723 30.5863 438.477 29.5529 439.68 28C441.427 25.9935 442.566 23.5315 442.964 20.9021V20.1678C442.964 19.4825 442.963 19.0909 442.326 19.0909C441.689 19.0909 441.346 19.4825 440.611 20.2168C437.727 23.174 435.71 26.8651 434.78 30.8881V30.8881Z" fill="#202020"/>
<path d="M455.312 17.7692L453.744 21.7343C455.655 18.7972 457.517 17.3287 459.281 17.3287C459.833 17.3036 460.383 17.4104 460.886 17.6403C461.389 17.8701 461.83 18.2164 462.172 18.6504C462.839 19.4461 463.203 20.4516 463.201 21.4895C462.815 24.0815 462.056 26.6042 460.947 28.979C460.506 30.007 460.114 31.035 459.722 32.0629C458.988 33.6046 458.524 35.2602 458.35 36.958C458.35 37.6434 458.35 37.986 458.889 37.986C459.401 37.9009 459.869 37.6415 460.212 37.2517C463.391 33.8525 466.109 30.0507 468.297 25.9441L469.032 26.4336C463.936 35.2448 460.114 39.6504 457.566 39.6504C457.143 39.7154 456.711 39.6809 456.305 39.5497C455.898 39.4185 455.527 39.1941 455.223 38.8946C454.918 38.5951 454.688 38.2286 454.55 37.8244C454.413 37.4202 454.371 36.9894 454.43 36.5664C454.46 35.1413 454.742 33.7326 455.263 32.4056C455.785 31.0023 456.422 29.5338 457.174 28C458.6 25.4653 459.562 22.6971 460.016 19.8252C460.016 18.7483 459.673 18.2587 458.987 18.2587C458.007 18.4415 457.123 18.9611 456.488 19.7273C454.947 21.4086 453.66 23.3049 452.666 25.3566C451.539 27.7063 450.51 29.9091 449.628 32.0629L446.394 39.6014H442.229L451.147 17.7692H455.312Z" fill="#202020"/>
<path d="M471.237 39.6014C470.184 39.6562 469.145 39.3448 468.297 38.7203C467.567 38.1674 467.007 37.4213 466.68 36.5664C466.384 35.6155 466.235 34.6251 466.239 33.6294C466.26 31.6151 466.658 29.6226 467.415 27.7552C468.085 25.9164 468.991 24.1723 470.11 22.5664C471.027 21.166 472.15 19.9118 473.442 18.8462C474.351 17.9961 475.531 17.4935 476.774 17.4266C478.832 17.4266 479.91 18.5035 479.91 20.7063C479.913 21.5343 479.798 22.3586 479.567 23.1538C478.587 27.021 477.558 28.9301 476.529 28.9301C476.181 28.9179 475.85 28.7785 475.598 28.5385C475.385 28.2772 475.28 27.9445 475.304 27.6084C475.302 27.4349 475.336 27.2628 475.404 27.1029C475.471 26.9429 475.57 26.7985 475.696 26.6783C475.948 26.4383 476.279 26.2989 476.627 26.2867C476.79 26.2797 476.952 26.3065 477.104 26.3655C477.256 26.4245 477.394 26.5143 477.509 26.6294C478.456 24.7573 478.991 22.7042 479.077 20.6084C479.166 20.2715 479.166 19.9173 479.077 19.5804C479.035 19.4603 478.954 19.3572 478.848 19.2865C478.742 19.2159 478.616 19.1816 478.489 19.1888C477.607 19.1888 476.382 20.3147 474.814 22.5175C472.206 25.7202 470.665 29.6561 470.404 33.7762C470.393 34.7173 470.577 35.6504 470.943 36.5175C471.079 36.9567 471.352 37.341 471.722 37.614C472.092 37.8871 472.541 38.0346 473.001 38.035C475.059 38.035 477.901 35.4406 481.233 30.1538C481.919 29.028 482.654 27.8531 483.389 26.5804L483.732 25.9441L484.516 26.4336L483.487 28.0979C479.175 35.7343 475.304 39.6014 471.237 39.6014V39.6014Z" fill="#202020"/>
<path d="M486.77 39.6014C485.716 39.6689 484.673 39.3562 483.83 38.7203C483.071 38.0881 482.479 37.2807 482.103 36.368C481.727 35.4553 481.58 34.4649 481.674 33.4825C481.709 31.3917 482.158 29.3286 482.997 27.4126C483.674 25.688 484.546 24.0457 485.594 22.5175C486.538 21.1529 487.659 19.9185 488.926 18.8462C489.835 17.9961 491.015 17.4935 492.258 17.4266C492.66 17.3933 493.065 17.4459 493.445 17.5809C493.825 17.716 494.172 17.9303 494.463 18.2098C494.981 18.8229 495.244 19.6114 495.198 20.4126C495.145 21.9237 494.777 23.4073 494.12 24.7692C493.52 26.5728 492.443 28.1805 491.002 29.4215C489.561 30.6626 487.811 31.4908 485.937 31.8182C485.686 33.473 485.889 35.1648 486.525 36.7133C486.668 37.1173 486.934 37.4666 487.285 37.7124C487.636 37.9581 488.056 38.088 488.485 38.0839C490.592 38.0839 493.385 35.4895 496.717 30.2028C497.256 29.3706 498.089 27.951 499.265 25.993L500 26.4825L499.069 28.1469C494.904 35.7343 490.592 39.6014 486.77 39.6014V39.6014ZM486.084 30.8881C488.027 30.5863 489.78 29.5529 490.984 28C492.731 25.9935 493.87 23.5315 494.267 20.9021V20.1678C494.267 19.4825 494.267 19.0909 493.63 19.0909C492.993 19.0909 492.65 19.4825 491.915 20.2168C489.031 23.174 487.014 26.8651 486.084 30.8881V30.8881Z" fill="#202020"/>
<path d="M10.0451 62.4615C7.59506 62.4615 7.35006 62.9021 7.35006 65.6434V77.3427C7.59233 79.0044 7.42926 80.6999 6.87473 82.2851C6.3202 83.8703 5.39061 85.2983 4.16503 86.4476C3.13805 87.3809 1.89023 88.0379 0.539004 88.3566L0 87.0839C0.858919 86.7376 1.61066 86.1701 2.17873 85.4392C2.7468 84.7083 3.11091 83.8402 3.23403 82.9231C3.54218 80.8658 3.67332 78.7859 3.62603 76.7063V65.6434C3.62603 62.9021 3.33203 62.6573 0.735006 62.4615V61.2378H10.0451V62.4615ZM24.5002 79.8881C23.8718 80.8413 23.0323 81.6373 22.0467 82.2145C21.061 82.7917 19.9557 83.1346 18.8162 83.2168C17.8896 83.2266 16.9713 83.0433 16.1196 82.6786C15.268 82.3139 14.5019 81.7759 13.8702 81.0987C13.2385 80.4216 12.755 79.6202 12.4508 78.7459C12.1465 77.8716 12.0281 76.9436 12.1031 76.021C12.1482 73.7664 13.0814 71.6206 14.7001 70.049C15.9668 68.6608 17.7237 67.8183 19.6002 67.6993C20.9432 67.7989 22.1977 68.4062 23.1081 69.3975C24.0185 70.3889 24.5164 71.6897 24.5002 73.035C24.5002 73.7203 24.5002 74.1608 23.6182 74.2587C22.7362 74.3566 18.7182 74.6503 15.3861 74.7972C15.3861 78.6154 17.6891 80.4755 20.0412 80.4755C21.429 80.4539 22.7581 79.9123 23.7652 78.958L24.5002 79.8881ZM15.7291 73.4266H20.6292C21.1682 73.4266 21.3642 73.4266 21.3642 72.7413C21.3642 71.028 20.4332 69.4126 18.9632 69.4126C17.4931 69.4126 16.1211 70.6364 15.7291 73.4266ZM28.6652 68.0909V67.5035C28.6633 66.7198 28.7959 65.9417 29.0572 65.2028C29.5315 63.6644 30.4525 62.3015 31.7033 61.2867C32.7704 60.3194 34.1003 59.6892 35.5253 59.4755C36.5236 59.4533 37.4909 59.8223 38.2203 60.5035C38.3941 60.6705 38.5146 60.8849 38.5669 61.12C38.6192 61.3551 38.6009 61.6004 38.5143 61.8252C38.3197 62.2552 38.0357 62.639 37.6813 62.951C37.5357 63.0888 37.3428 63.1655 37.1423 63.1655C36.9418 63.1655 36.7489 63.0888 36.6033 62.951C35.923 62.1469 34.9568 61.6379 33.9083 61.5315C33.6109 61.5235 33.3186 61.609 33.0724 61.7759C32.8263 61.9427 32.6387 62.1826 32.5363 62.4615C32.1355 63.9605 32.0192 65.5212 32.1933 67.0629V68.0909H35.9663C36.0578 68.3778 36.0696 68.6841 36.0006 68.9772C35.9315 69.2703 35.7842 69.5392 35.5743 69.7552H32.2423V79.2028C32.2423 81.3077 32.2423 81.5035 34.9863 81.7483V82.8741H26.5092V81.7483C28.4692 81.5035 28.6652 81.3077 28.6652 79.2518V69.7552H26.4602V69.3147L27.4402 68.0909H28.6652Z" fill="#11345C"/>
<path d="M39.2003 68.0909V67.5035C39.1983 66.7198 39.3309 65.9417 39.5923 65.2028C40.0666 63.6644 40.9875 62.3015 42.2383 61.2867C43.3103 60.3266 44.6379 59.6975 46.0604 59.4755C47.0586 59.4533 48.026 59.8223 48.7554 60.5035C48.9291 60.6705 49.0497 60.8849 49.102 61.12C49.1543 61.3551 49.136 61.6004 49.0494 61.8252C48.872 62.2651 48.5853 62.6526 48.2164 62.951C48.0708 63.0888 47.8779 63.1655 47.6774 63.1655C47.4769 63.1655 47.284 63.0888 47.1384 62.951C46.4581 62.1469 45.4919 61.6379 44.4434 61.5315C44.1509 61.5184 43.8624 61.6027 43.623 61.771C43.3836 61.9393 43.2068 62.1821 43.1203 62.4615C42.6627 63.9499 42.529 65.5188 42.7283 67.0629V68.0909H46.5504C46.6153 68.3799 46.6137 68.6798 46.5458 68.9681C46.4779 69.2564 46.3455 69.5255 46.1584 69.7552H42.7283V79.2028C42.7283 81.3077 42.7283 81.5035 45.4724 81.7483V82.8741H37.0933V81.7483C39.0533 81.5035 39.2003 81.3077 39.2003 79.2518V69.7552H36.9953V69.3147L37.9263 68.0909H39.2003Z" fill="#11345C"/>
<path d="M53.4104 71.1748C54.5864 69.2168 55.9094 67.6993 57.2815 67.6993C57.5453 67.6928 57.8078 67.7383 58.0541 67.8332C58.3003 67.9281 58.5254 68.0705 58.7166 68.2523C58.9077 68.4342 59.0611 68.6519 59.1679 68.8929C59.2748 69.134 59.3331 69.3938 59.3395 69.6573C59.346 70.1047 59.2189 70.5438 58.9746 70.9187C58.7302 71.2936 58.3796 71.5872 57.9675 71.7622C57.8326 71.8616 57.6695 71.9152 57.502 71.9152C57.3344 71.9152 57.1713 71.8616 57.0365 71.7622C56.6364 71.3483 56.0928 71.1031 55.5174 71.0769C54.7824 71.0769 53.9494 71.7133 53.3124 73.3287V79.3007C53.3124 81.3566 53.3124 81.5035 56.0564 81.7483V82.8741H47.5794V81.7483C49.5394 81.5035 49.7844 81.3566 49.7844 79.3007V72.3007C49.7844 70.3916 49.7844 70.2448 47.8734 69.9511V68.9231C49.7281 68.702 51.5524 68.2752 53.3124 67.6504V71.1748H53.4104ZM73.1576 79.8881C72.5325 80.8593 71.6883 81.6707 70.6927 82.2573C69.6971 82.8438 68.5778 83.1892 67.4245 83.2657C66.498 83.2756 65.5796 83.0923 64.728 82.7276C63.8764 82.3629 63.1103 81.8248 62.4786 81.1477C61.8469 80.4705 61.3634 79.6692 61.0592 78.7949C60.7549 77.9206 60.6365 76.9925 60.7115 76.0699C60.717 73.8311 61.5755 71.6783 63.1125 70.049C64.3853 68.669 66.1387 67.8283 68.0125 67.6993C68.728 67.6728 69.4413 67.7915 70.1095 68.0484C70.7776 68.3053 71.3867 68.6949 71.8997 69.1937C72.4128 69.6925 72.8192 70.2901 73.0943 70.9504C73.3695 71.6106 73.5077 72.3198 73.5006 73.035C73.5006 73.7203 73.5006 74.1608 72.6676 74.2587C71.8346 74.3566 67.7675 74.6504 64.4355 74.7972C64.4355 78.6154 66.6895 80.4755 69.0415 80.4755C70.4294 80.4539 71.7585 79.9123 72.7656 78.958L73.1576 79.8881ZM64.3865 73.4266H69.2866C69.7766 73.4266 69.9726 73.4266 69.9726 72.7413C69.9726 71.028 69.0905 69.4126 67.5715 69.4126C66.0525 69.4126 64.7295 70.6364 64.3865 73.4266ZM90.1607 69.2168C88.4457 69.2168 88.1517 69.7552 87.3187 71.5175C86.4857 73.2797 85.4567 76.021 83.3497 81.014C82.0693 83.9676 80.9568 86.991 80.0176 90.0699C79.9506 90.3415 79.7924 90.5818 79.5695 90.7511C79.3466 90.9203 79.0725 91.0081 78.7926 91C78.2538 90.9831 77.738 90.7778 77.3351 90.42C76.9321 90.0622 76.6676 89.5745 76.5876 89.042C76.5876 88.4546 76.8816 88.1608 77.4696 87.7692C78.5166 87.2046 79.3828 86.3562 79.9686 85.3217C80.2632 84.7496 80.5249 84.1612 80.7526 83.5594C80.9244 83.0682 80.9244 82.5332 80.7526 82.042C79.1846 77.6853 77.5186 73.2797 76.7836 71.4196C76.0486 69.5594 75.7546 69.4615 74.0396 69.2168V68.0909H81.6836V69.2168C80.1646 69.2168 80.0176 69.7552 80.3606 70.8322L83.0067 78.5664C83.8397 76.4126 85.0647 72.986 85.7017 70.979C86.0937 69.8531 85.7017 69.4615 84.0847 69.2168V68.0909H90.1607V69.2168ZM107.801 61.2378C109.483 61.0691 111.181 61.2377 112.797 61.7336C114.412 62.2296 115.912 63.0429 117.209 64.1259C118.126 65.0621 118.846 66.1727 119.326 67.392C119.806 68.6112 120.035 69.9142 120.002 71.2238C120.094 72.9193 119.771 74.6117 119.063 76.1552C118.354 77.6987 117.281 79.047 115.935 80.0839C113.086 82.1099 109.625 83.0951 106.135 82.8741H98.0008V81.6504C100.696 81.4056 100.99 81.2587 100.99 78.4685V65.6434C100.99 62.8531 100.696 62.6573 98.2948 62.4615V61.2378H107.801ZM104.763 78.3217C104.763 80.6713 105.498 81.4545 107.801 81.4545C112.701 81.4545 115.69 77.5385 115.69 71.6643C115.778 70.3018 115.554 68.9371 115.036 67.6736C114.519 66.41 113.72 65.2805 112.701 64.3706C111.213 63.155 109.329 62.5278 107.409 62.6084C106.631 62.5465 105.852 62.6989 105.155 63.049C104.91 63.3427 104.812 63.8322 104.812 64.8601L104.763 78.3217ZM125.686 83.2168C125.388 83.2171 125.093 83.157 124.819 83.0403C124.545 82.9235 124.297 82.7524 124.091 82.5374C123.885 82.3224 123.725 82.0678 123.62 81.7892C123.515 81.5105 123.468 81.2135 123.481 80.9161C123.468 80.6099 123.516 80.3042 123.623 80.0169C123.73 79.7296 123.893 79.4665 124.103 79.243C124.313 79.0196 124.565 78.8403 124.846 78.7157C125.126 78.5911 125.428 78.5237 125.735 78.5175C126.044 78.5168 126.349 78.5796 126.633 78.7018C126.916 78.824 127.172 79.0031 127.383 79.228C127.594 79.453 127.757 79.7188 127.862 80.0092C127.966 80.2996 128.009 80.6083 127.989 80.9161C128.003 81.2177 127.954 81.5188 127.846 81.8008C127.738 82.0828 127.573 82.3396 127.362 82.5554C127.151 82.7711 126.897 82.9411 126.617 83.0549C126.337 83.1687 126.037 83.2238 125.735 83.2168H125.686ZM158.173 77.2937C157.683 78.8601 156.899 81.3077 156.36 82.5315C154.36 82.9593 152.328 83.2212 150.284 83.3147C148.764 83.4677 147.229 83.2962 145.78 82.8115C144.331 82.3267 143.002 81.5398 141.881 80.503C140.759 79.4661 139.871 78.203 139.276 76.7973C138.68 75.3917 138.391 73.8756 138.426 72.3497C138.412 70.7289 138.738 69.1232 139.386 67.6369C140.033 66.1507 140.986 64.8171 142.183 63.7229C143.38 62.6287 144.794 61.7984 146.333 61.2859C147.873 60.7734 149.502 60.5902 151.117 60.7483C153.075 60.7909 155.018 61.0871 156.899 61.6294C157.193 63.4406 157.389 64.9091 157.585 66.9161L156.311 67.1608C156.127 65.7374 155.406 64.4378 154.295 63.5279C153.184 62.6181 151.767 62.1666 150.333 62.2657C145.433 62.2657 142.738 66.7203 142.738 71.7133C142.738 77.7832 146.119 81.8462 150.578 81.8462C153.469 81.8462 155.233 80.1818 156.899 76.9511L158.173 77.2937ZM159.202 82.8741V81.7483C161.211 81.4546 161.505 81.3077 161.505 79.2028V64.028C161.505 61.972 161.505 61.9231 159.349 61.6783V60.6504C161.271 60.4059 163.172 60.0131 165.033 59.4755V79.0559C165.033 81.2098 165.033 81.3566 167.336 81.6014V82.7273L159.202 82.8741ZM179.586 83.2168C178.928 83.2098 178.291 82.9861 177.773 82.5804C177.391 82.1958 177.106 81.7261 176.94 81.2098C175.86 82.1145 174.611 82.7966 173.265 83.2168C172.706 83.2233 172.15 83.1195 171.63 82.9114C171.111 82.7034 170.637 82.3951 170.237 82.0041C169.836 81.6132 169.517 81.1473 169.297 80.6331C169.076 80.1188 168.96 79.5663 168.953 79.007C168.923 78.2295 169.166 77.466 169.64 76.8489C170.115 76.2319 170.791 75.8004 171.55 75.6294C173.402 75.1252 175.18 74.3848 176.842 73.4266V72.7413C176.842 70.5874 175.911 69.3147 174.49 69.3147C174.238 69.3227 173.989 69.3835 173.762 69.4931C173.534 69.6027 173.331 69.7587 173.167 69.9511C172.72 70.6375 172.404 71.4011 172.236 72.2028C172.189 72.488 172.037 72.7455 171.811 72.9262C171.585 73.1068 171.3 73.1978 171.011 73.1818C170.561 73.1624 170.133 72.9847 169.801 72.6802C169.469 72.3757 169.256 71.9639 169.198 71.5175C169.198 70.979 169.541 70.5874 170.276 70.049C171.89 68.9631 173.681 68.1679 175.568 67.6993C176.683 67.637 177.781 67.9854 178.655 68.6783C179.236 69.1942 179.685 69.8405 179.966 70.5639C180.247 71.2874 180.352 72.0672 180.272 72.8392V78.6154C180.272 80.1818 180.811 80.6713 181.35 80.6713C181.762 80.6394 182.162 80.5228 182.526 80.3287L182.869 81.4545L179.586 83.2168ZM176.842 74.7972L174.392 76.021C173.897 76.1687 173.462 76.4724 173.153 76.887C172.844 77.3016 172.677 77.8048 172.677 78.3217C172.651 78.6253 172.686 78.9313 172.781 79.221C172.876 79.5106 173.029 79.778 173.231 80.0068C173.432 80.2357 173.678 80.4212 173.954 80.5523C174.229 80.6833 174.528 80.7572 174.833 80.7692C175.578 80.7279 176.287 80.4344 176.842 79.9371V74.7972ZM189.877 71.1748C191.004 69.2168 192.327 67.6993 193.699 67.6993C193.966 67.6862 194.234 67.7267 194.486 67.8186C194.738 67.9105 194.969 68.0519 195.165 68.2344C195.362 68.4169 195.52 68.6368 195.63 68.8812C195.739 69.1256 195.799 69.3895 195.806 69.6573C195.815 70.1118 195.684 70.558 195.429 70.9349C195.175 71.3117 194.81 71.6007 194.385 71.7622C194.25 71.8616 194.087 71.9152 193.919 71.9152C193.752 71.9152 193.588 71.8616 193.454 71.7622C193.268 71.5545 193.042 71.3866 192.789 71.2688C192.536 71.151 192.262 71.0857 191.984 71.0769C191.249 71.0769 190.416 71.7133 189.779 73.3287V79.3007C189.779 81.3566 189.779 81.5035 192.523 81.7483V82.8741H184.045V81.7483C186.005 81.5035 186.25 81.3566 186.25 79.3007V72.3007C186.25 70.3916 186.25 70.2448 184.339 69.9511V68.9231C186.194 68.702 188.018 68.2752 189.779 67.6504V71.1748H189.877ZM208.301 82.8741C207.027 81.3566 205.165 78.6154 203.401 76.3147C203.009 75.8252 202.764 75.6294 202.519 75.6294H202.127V79.2028C202.127 81.3077 202.127 81.4546 204.381 81.6993V82.8252H196.443V81.7483C198.55 81.5035 198.795 81.3077 198.795 79.2518V63.979C198.795 62.021 198.795 61.8741 196.737 61.6783V60.6504C198.605 60.375 200.454 59.9826 202.274 59.4755V74.6504C203.064 74.4841 203.773 74.0522 204.283 73.4266C205.022 72.5311 205.693 71.5821 206.292 70.5874C206.733 69.8042 206.684 69.4615 205.312 69.3147V68.1888L212.368 67.8951V68.972C210.804 69.0439 209.321 69.6887 208.203 70.7832C207.281 71.6973 206.429 72.6791 205.655 73.7203C206.439 74.8951 209.575 78.9091 210.555 79.986C210.912 80.4625 211.36 80.8635 211.873 81.166C212.386 81.4685 212.954 81.6664 213.544 81.7483V82.8741H208.301ZM219.914 81.8462C219.914 84.8811 217.17 86.7413 214.622 87.2797L214.23 86.007C216.141 85.2238 217.121 84.2937 217.121 82.9231C217.071 82.3147 216.817 81.7412 216.398 81.2965C215.98 80.8518 215.422 80.5623 214.818 80.4755C214.818 80.4755 214.328 80.1329 214.328 79.4476C214.34 79.2052 214.401 78.9677 214.507 78.7493C214.613 78.531 214.762 78.3361 214.945 78.1762C215.127 78.0164 215.34 77.895 215.571 77.819C215.802 77.7431 216.046 77.7143 216.288 77.7343C217.301 77.8331 218.239 78.3126 218.912 79.0759C219.586 79.8392 219.943 80.8293 219.914 81.8462V81.8462ZM239.318 61.2378C240.999 61.0746 242.696 61.2458 244.311 61.7415C245.926 62.2372 247.426 63.0476 248.726 64.1259C249.643 65.0621 250.363 66.1727 250.843 67.392C251.323 68.6112 251.553 69.9142 251.519 71.2238C251.611 72.9193 251.288 74.6117 250.58 76.1552C249.871 77.6987 248.798 79.047 247.452 80.0839C244.599 82.1026 241.141 83.0871 237.652 82.8741H229.616V81.6504C232.311 81.4056 232.605 81.2587 232.605 78.4685V65.6434C232.605 62.8531 232.311 62.6573 229.91 62.4615V61.2378H239.318ZM236.378 78.3217C236.378 80.6713 237.064 81.4545 239.416 81.4545C244.316 81.4545 247.256 77.5385 247.256 71.6643C247.363 70.2854 247.148 68.9005 246.63 67.6181C246.111 66.3357 245.303 65.1907 244.267 64.2727C242.774 63.0651 240.894 62.439 238.975 62.5105C238.197 62.4486 237.418 62.601 236.721 62.951C236.427 63.2448 236.378 63.7343 236.378 64.7622V78.3217ZM263.867 61.2378C265.541 61.0702 267.232 61.2395 268.839 61.7355C270.447 62.2315 271.938 63.0443 273.226 64.1259C274.143 65.0621 274.863 66.1727 275.343 67.392C275.823 68.6112 276.053 69.9142 276.019 71.2238C276.111 72.9193 275.789 74.6117 275.08 76.1552C274.372 77.6987 273.298 79.047 271.952 80.0839C269.105 82.1135 265.643 83.0991 262.152 82.8741H254.116V81.6504C256.811 81.4056 257.154 81.2587 257.154 78.4685V65.6434C257.154 62.8531 256.86 62.6573 254.41 62.4615V61.2378H263.867ZM260.878 78.3217C260.878 80.6713 261.613 81.4545 263.916 81.4545C268.816 81.4545 271.805 77.5385 271.805 71.6643C271.912 70.2854 271.698 68.9005 271.179 67.6181C270.661 66.3357 269.852 65.1907 268.816 64.2727C267.309 63.0578 265.41 62.4315 263.475 62.5105C262.713 62.4474 261.949 62.6001 261.27 62.951C260.976 63.2448 260.878 63.7343 260.878 64.7622V78.3217ZM290.572 66.5734C289.935 64.4685 289.004 62.1678 286.26 62.1678C285.811 62.1403 285.361 62.2069 284.939 62.3631C284.517 62.5193 284.132 62.7619 283.809 63.0752C283.486 63.3885 283.233 63.7657 283.064 64.1826C282.895 64.5996 282.816 65.0471 282.83 65.4965C282.83 67.5525 284.251 68.6294 286.995 70C289.739 71.3706 292.777 73.2797 292.777 76.8042C292.711 77.7407 292.455 78.6541 292.025 79.4892C291.596 80.3243 291.001 81.0638 290.278 81.663C289.554 82.2623 288.717 82.7089 287.816 82.976C286.915 83.243 285.969 83.3249 285.035 83.2168C283.942 83.2177 282.854 83.0695 281.801 82.7762C281.149 82.5921 280.511 82.3631 279.89 82.0909C279.439 80.3043 279.112 78.4889 278.91 76.6573L280.233 76.3147C280.772 78.3217 282.389 81.8462 285.721 81.8462C286.178 81.8466 286.63 81.7546 287.05 81.5758C287.47 81.3969 287.85 81.1349 288.166 80.8055C288.481 80.4762 288.727 80.0863 288.888 79.6594C289.049 79.2325 289.122 78.7774 289.102 78.3217C289.102 76.2168 287.485 74.9441 284.986 73.4266C282.487 71.9091 279.4 70.1958 279.4 66.8182C279.421 65.9161 279.631 65.0283 280.015 64.2121C280.4 63.3958 280.952 62.6691 281.636 62.0789C282.319 61.4886 283.118 61.0478 283.982 60.7849C284.846 60.522 285.756 60.4428 286.652 60.5524C288.157 60.5964 289.645 60.8772 291.062 61.3846C291.062 62.5594 291.405 63.979 291.699 66.2797L290.572 66.5734ZM300.96 81.8462C300.96 84.8811 298.216 86.7413 295.668 87.2797L295.227 86.007C297.138 85.2238 298.118 84.2937 298.118 82.9231C298.08 82.319 297.835 81.7463 297.425 81.3008C297.015 80.8553 296.464 80.564 295.864 80.4755C295.864 80.4755 295.374 80.1329 295.374 79.4476C295.387 79.2052 295.448 78.9677 295.554 78.7493C295.66 78.531 295.808 78.3361 295.991 78.1762C296.174 78.0164 296.387 77.895 296.618 77.819C296.849 77.7431 297.092 77.7143 297.334 77.7343C298.348 77.8331 299.286 78.3126 299.959 79.0759C300.632 79.8392 300.99 80.8293 300.96 81.8462V81.8462ZM325.216 66.4266C325.018 65.4412 324.618 64.5077 324.04 63.6853C323.501 62.9021 322.668 62.6573 320.659 62.6573H318.503C317.376 62.6573 317.229 62.6573 317.229 63.8322V71.2238H320.218C323.109 71.2238 323.354 70.979 323.697 68.8252H324.971V75.4336H323.697C323.354 73.1329 323.109 72.8392 320.218 72.8392H317.229V78.3217C317.229 81.1608 317.523 81.3566 320.463 81.6014V82.8252H310.662V81.6014C313.162 81.3566 313.505 81.1608 313.505 78.3217V65.7413C313.505 62.8532 313.162 62.6573 310.711 62.4615V61.2378H325.902C325.902 62.021 325.902 64.3706 326.294 66.1329L325.216 66.4266ZM341.141 82.8741V81.6504C343.101 81.3566 343.346 81.0629 342.905 79.6923L341.435 75.6294H334.869C334.477 76.7063 334.036 77.8811 333.693 79.2028C333.35 80.5245 333.301 81.3566 335.653 81.6504V82.8741H328.303V81.6504C330.459 81.3566 330.9 81.1119 332.027 78.2727L338.642 61.1399L340.21 60.7483C342.219 66.3776 344.326 72.5944 346.433 78.2238C347.462 81.0629 347.903 81.4056 350.059 81.6504V82.8741H341.141ZM338.103 66.1818C337.172 68.7762 336.29 71.3706 335.359 73.8671H340.798L338.103 66.1818ZM373.334 73.7692C371.57 74.1119 371.374 74.2098 371.374 76.3147V79.007C371.269 80.065 371.269 81.1308 371.374 82.1888C368.954 82.8226 366.474 83.2 363.975 83.3147C362.438 83.4819 360.884 83.3201 359.415 82.84C357.945 82.3599 356.596 81.5725 355.455 80.5303C354.315 79.4882 353.409 78.2152 352.8 76.7961C352.191 75.3771 351.891 73.8446 351.921 72.3007C351.906 70.6863 352.232 69.087 352.877 67.6066C353.521 66.1263 354.471 64.7981 355.663 63.7084C356.856 62.6188 358.264 61.7921 359.798 61.2821C361.331 60.7721 362.955 60.5902 364.563 60.7483C366.668 60.7946 368.759 61.1071 370.786 61.6783C370.786 62.8532 371.129 64.6154 371.325 67.0629L370.051 67.3077C369.914 65.8267 369.2 64.4586 368.064 63.4975C366.928 62.5364 365.46 62.0589 363.975 62.1678C359.712 62.1678 356.233 65.7413 356.233 71.958C356.233 76.8531 358.781 82.1399 364.367 82.1399C365.116 82.1644 365.858 81.9958 366.523 81.6504C367.062 81.3077 367.405 80.8671 367.405 79.6923V76.7552C367.405 74.4545 367.405 74.2587 363.877 73.965V72.7413H373.089L373.334 73.7692ZM384.996 61.2378C386.67 61.0702 388.361 61.2395 389.968 61.7355C391.576 62.2315 393.067 63.0443 394.355 64.1259C395.272 65.0621 395.992 66.1727 396.472 67.392C396.952 68.6112 397.182 69.9142 397.148 71.2238C397.237 72.9141 396.919 74.601 396.22 76.1428C395.52 77.6846 394.461 79.0362 393.13 80.0839C390.274 82.0955 386.819 83.0792 383.33 82.8741H375.294V81.6504C377.94 81.4056 378.283 81.2587 378.283 78.4685V65.6434C378.283 62.8531 377.989 62.6573 375.588 62.4615V61.2378H384.996ZM382.203 78.3217C382.203 80.6713 382.938 81.4545 385.241 81.4545C390.141 81.4545 393.13 77.5385 393.13 71.6643C393.237 70.2854 393.023 68.9005 392.504 67.6181C391.985 66.3357 391.177 65.1907 390.141 64.2727C388.649 63.0651 386.768 62.439 384.849 62.5105C384.072 62.4486 383.292 62.601 382.595 62.951C382.301 63.2448 382.203 63.7343 382.203 64.7622V78.3217Z" fill="#11345C"/>
</g>
<defs>
<clipPath id="clip0_3_35">
<rect width="500" height="91" fill="white"/>
</clipPath>
</defs>
</svg>
